<mxfile host="app.diagrams.net" agent="Mozilla/5.0 (Windows NT 10.0; Win64; x64; rv:136.0) Gecko/20100101 Firefox/136.0" version="24.8.6">
  <diagram name="Page-1" id="SndHWA03tAMIK7r6R2y_">
    <mxGraphModel dx="2383" dy="530" grid="1" gridSize="10" guides="1" tooltips="1" connect="1" arrows="1" fold="1" page="1" pageScale="1" pageWidth="1100" pageHeight="850" math="0" shadow="0">
      <root>
        <mxCell id="0" />
        <mxCell id="1" parent="0" />
        <mxCell id="El-sgP1DWGqVcRPQF3cg-43" value="" style="rounded=0;whiteSpace=wrap;html=1;fillColor=#F2F9FF;" vertex="1" parent="1">
          <mxGeometry y="720" width="1250" height="360" as="geometry" />
        </mxCell>
        <mxCell id="El-sgP1DWGqVcRPQF3cg-20" value="" style="rounded=0;whiteSpace=wrap;html=1;strokeColor=#FFFFFF;fillColor=#FFFFFF;" vertex="1" parent="1">
          <mxGeometry y="410" width="1250" height="310" as="geometry" />
        </mxCell>
        <object label="" id="El-sgP1DWGqVcRPQF3cg-13">
          <mxCell style="rounded=0;whiteSpace=wrap;html=1;strokeColor=#FFE599;shadow=1;fillColor=#F2F9FF;" vertex="1" parent="1">
            <mxGeometry y="120" width="1250" height="290" as="geometry" />
          </mxCell>
        </object>
        <mxCell id="El-sgP1DWGqVcRPQF3cg-6" value="" style="BLUESpace=wrap;html=1;fillColor=#0000CC;" vertex="1" parent="1">
          <mxGeometry width="1250" height="120" as="geometry" />
        </mxCell>
        <mxCell id="El-sgP1DWGqVcRPQF3cg-1" value="&lt;b&gt;ABOUT US&lt;/b&gt;" style="rounded=0;whiteSpace=wrap;html=1;" vertex="1" parent="1">
          <mxGeometry x="720" y="30" width="120" height="60" as="geometry" />
        </mxCell>
        <mxCell id="El-sgP1DWGqVcRPQF3cg-2" value="&lt;b&gt;COURSES&lt;/b&gt;" style="rounded=0;whiteSpace=wrap;html=1;" vertex="1" parent="1">
          <mxGeometry x="850" y="30" width="120" height="60" as="geometry" />
        </mxCell>
        <mxCell id="El-sgP1DWGqVcRPQF3cg-3" value="&lt;b&gt;JOBS&lt;/b&gt;" style="rounded=0;whiteSpace=wrap;html=1;" vertex="1" parent="1">
          <mxGeometry x="980" y="30" width="120" height="60" as="geometry" />
        </mxCell>
        <mxCell id="El-sgP1DWGqVcRPQF3cg-4" value="&lt;b&gt;SIGN UP&lt;/b&gt;" style="rounded=0;whiteSpace=wrap;html=1;" vertex="1" parent="1">
          <mxGeometry x="1110" y="30" width="120" height="60" as="geometry" />
        </mxCell>
        <mxCell id="El-sgP1DWGqVcRPQF3cg-7" style="edgeStyle=orthogonalEdgeStyle;rounded=0;orthogonalLoop=1;jettySize=auto;html=1;" edge="1" parent="1" source="El-sgP1DWGqVcRPQF3cg-6" target="El-sgP1DWGqVcRPQF3cg-6">
          <mxGeometry relative="1" as="geometry" />
        </mxCell>
        <mxCell id="El-sgP1DWGqVcRPQF3cg-8" value="&lt;div&gt;&lt;b&gt;ALX BADGER&amp;nbsp;&lt;/b&gt;&lt;/div&gt;&lt;div&gt;&lt;b&gt;LOGO&lt;/b&gt;&lt;/div&gt;" style="ellipse;whiteSpace=wrap;html=1;" vertex="1" parent="1">
          <mxGeometry x="40" y="30" width="120" height="80" as="geometry" />
        </mxCell>
        <mxCell id="El-sgP1DWGqVcRPQF3cg-10" value="&lt;div align=&quot;center&quot;&gt;&lt;font color=&quot;#000099&quot; face=&quot;Times New Roman&quot; style=&quot;font-size: 36px;&quot;&gt;LEARN THE SKILLS YOU NEED TO LAND A JOB&lt;/font&gt;&lt;/div&gt;" style="text;html=1;align=center;verticalAlign=middle;resizable=0;points=[];autosize=1;strokeColor=none;fillColor=none;" vertex="1" parent="1">
          <mxGeometry x="215" y="180" width="820" height="60" as="geometry" />
        </mxCell>
        <mxCell id="El-sgP1DWGqVcRPQF3cg-11" value="&lt;div align=&quot;center&quot;&gt;&lt;font style=&quot;font-size: 18px;&quot;&gt;Online training to upskill and connect you with employers&lt;/font&gt;&lt;/div&gt;" style="text;html=1;align=center;verticalAlign=middle;resizable=0;points=[];autosize=1;strokeColor=none;fillColor=none;" vertex="1" parent="1">
          <mxGeometry x="315" y="225" width="480" height="40" as="geometry" />
        </mxCell>
        <mxCell id="El-sgP1DWGqVcRPQF3cg-12" value="&lt;font style=&quot;font-size: 14px;&quot;&gt;START LEARNING&lt;/font&gt;" style="strokeWidth=1;shadow=0;dashed=0;align=center;html=1;shape=mxgraph.mockup.buttons.button;strokeColor=#666666;fontColor=#ffffff;mainText=;buttonStyle=round;fontSize=17;fontStyle=1;fillColor=#008cff;whiteSpace=wrap;" vertex="1" parent="1">
          <mxGeometry x="480" y="320" width="150" height="40" as="geometry" />
        </mxCell>
        <mxCell id="El-sgP1DWGqVcRPQF3cg-14" value="" style="whiteSpace=wrap;html=1;aspect=fixed;shape=ext;double=1;" vertex="1" parent="1">
          <mxGeometry x="170" y="470" width="120" height="120" as="geometry" />
        </mxCell>
        <mxCell id="El-sgP1DWGqVcRPQF3cg-15" value="&lt;div&gt;&lt;font style=&quot;font-size: 14px;&quot;&gt;&lt;b&gt;Skill Training&lt;/b&gt;&lt;/font&gt;&lt;/div&gt;&lt;div&gt;&lt;font size=&quot;3&quot;&gt;Description of feature&lt;/font&gt;&lt;/div&gt;" style="text;html=1;align=center;verticalAlign=middle;resizable=0;points=[];autosize=1;strokeColor=none;fillColor=none;" vertex="1" parent="1">
          <mxGeometry x="140" y="590" width="180" height="50" as="geometry" />
        </mxCell>
        <mxCell id="El-sgP1DWGqVcRPQF3cg-16" value="" style="shape=singleArrow;direction=north;whiteSpace=wrap;html=1;" vertex="1" parent="1">
          <mxGeometry x="975" y="466" width="60" height="120" as="geometry" />
        </mxCell>
        <mxCell id="El-sgP1DWGqVcRPQF3cg-17" value="&lt;div&gt;&lt;font style=&quot;font-size: 14px;&quot;&gt;&lt;b&gt;Upskilling&lt;/b&gt;&lt;/font&gt;&lt;/div&gt;&lt;div&gt;&lt;font style=&quot;font-size: 14px;&quot;&gt;Description of feature&lt;/font&gt;&lt;/div&gt;&lt;div&gt;&lt;font size=&quot;3&quot;&gt;&lt;b&gt;&lt;br&gt;&lt;/b&gt;&lt;/font&gt;&lt;/div&gt;" style="text;html=1;align=center;verticalAlign=middle;resizable=0;points=[];autosize=1;strokeColor=none;fillColor=none;" vertex="1" parent="1">
          <mxGeometry x="925" y="594" width="160" height="70" as="geometry" />
        </mxCell>
        <mxCell id="El-sgP1DWGqVcRPQF3cg-18" value="" style="shape=image;html=1;verticalAlign=top;verticalLabelPosition=bottom;labelBackgroundColor=#ffffff;imageAspect=0;aspect=fixed;image=https://cdn2.iconfinder.com/data/icons/essential-web-1-1/50/link-connection-relationship-chain-joint-128.png" vertex="1" parent="1">
          <mxGeometry x="520" y="466" width="128" height="128" as="geometry" />
        </mxCell>
        <mxCell id="El-sgP1DWGqVcRPQF3cg-19" value="&lt;div&gt;&lt;b&gt;&lt;font style=&quot;font-size: 14px;&quot;&gt;Job Linkage&lt;/font&gt;&lt;/b&gt;&lt;/div&gt;&lt;div&gt;&lt;font size=&quot;3&quot;&gt;Description of feature&lt;/font&gt;&lt;/div&gt;" style="text;html=1;align=center;verticalAlign=middle;resizable=0;points=[];autosize=1;strokeColor=none;fillColor=none;" vertex="1" parent="1">
          <mxGeometry x="475" y="590" width="180" height="50" as="geometry" />
        </mxCell>
        <mxCell id="El-sgP1DWGqVcRPQF3cg-21" value="&lt;br&gt;&lt;div&gt;&lt;b&gt;&lt;font style=&quot;font-size: 14px;&quot;&gt;&lt;br&gt;&lt;/font&gt;&lt;/b&gt;&lt;/div&gt;&lt;div&gt;&lt;img height=&quot;148&quot; width=&quot;156&quot; src=&quot;data:image/jpeg;base64,/9j/4AAQSkZJRgABAQAAAQABAAD/2wCEAAkGBwgHBgkIBwgKCgkLDRYPDQwMDRsUFRAWIB0iIiAdHx8kKDQsJCYxJx8fLT0tMTU3Ojo6Iys/RD84QzQ5OjcBCgoKDQwNGg8PGjclHyU3Nzc3Nzc3Nzc3Nzc3Nzc3Nzc3Nzc3Nzc3Nzc3Nzc3Nzc3Nzc3Nzc3Nzc3Nzc3Nzc3N//AABEIAJQAnAMBIgACEQEDEQH/xAAcAAACAgMBAQAAAAAAAAAAAAAFBgQHAAIDAQj/xAA6EAABAwIEBAMFBwMEAwAAAAABAAIDBBEFEiExBhNBUSJhcQcUMkKBI1JykaHR4WKxwRVDgrIWJDP/xAAaAQACAwEBAAAAAAAAAAAAAAABAgADBAUG/8QAJhEAAwACAgECBwEBAAAAAAAAAAECAxESITEEEyIyM0FRYXEUBf/aAAwDAQACEQMRAD8AUo6bT4ypUFKAR41ziKmRKbF4HZtMCPiH5rYUV/mC3jBXcNJU5A4Ayow+43UeHCXF9wUebFm3U2lpWqcg8AFBhDyNTZTafBzmFyjrKZtl2ZCAirI8ZFoKeSmFgdFLkfM5pAK7NjWxhupyB7YvYjSzSX16II7Dpc/VO80ALVDfSNvspyCoAcdDMY+i5Ow+a+oCZRC0NAC0dC1TkD22LhoZC0jLdQpsMdf4QmmWIW0UGZlkeRPbYsy4a+3whDp6J7D8Ka5QockIduEHQeGhZkp5OX8KgvgkzfAnD3IOCjvw27twl2MpIsFW021RGCoitqUjRVTmqXHiLmt3KGxx8iqYu6lR1EPdV8MYc3qVu3HXjq5TZNFiMnhvuplPURfeVaNx93crvHxE5vUqELSZURW+JdBUQgXLwAq0j4lJIALipMuNz8hzsp+qhCyY5oHC4kbbvddhJERo4H6qnm43U59XnIDqAbBSGcUSROFnC3bNZEJasj2dwoznx33H5qupeK6p/wD8y0Adzcr2l4lfJLypHnPa+g0UIWJnj7rk98f3gkh/EeQ2c8rR3EjT86BB0e+M9Qoc2Q9QlN3EIPzfquT8dBG/6qEGOXL3CjkNvuEuuxpp+ZcjjLfvKAY1AsA3C5ksvuEsf600D4locab95QhxoOG56u2U79gibeCK3Lext+FWjwngscVHG90YLiBe4TUKCMM+Afkk8k8HzxW8L1VOxziL5fJAzSvD8pbqvoHiHDYxBIcn6KoqmmYMVe0CyCoZLYEiwieRt2iyxuE1ObLld62TpFTNYxo7o1TUcQhu5mY9B3PZK7Y6xpleR4U+ne10+nUBeVr38p1xbxJg4lMcVa2J5b4RqN9StMKwCXGJHcpjuV0NtFan12I570hUJe+MNIIHX1uo88DsxIbZoHZWrT+z5zYzzpG7iwUXFuDZo2XgDXDtZDmhvbZV0TiHaG3mimGgNmEmbMTuAFNreFcSizOEBGvQboa2Cqp5spL45B0eLBFUmK4aCGJUlrSMYQHC4udlAELydkXpJGzxuZO1om7n/C70tG2SUNFib7BCiStgQUkmhymy6xYXUy6RwvPoFYFBw2+WIOMdvonTB8BhgiaDE29uyVUmNUtFGPwTEGAk0soA8lBmppYnZZGOB8wvpeowiKSHKI2pF4n4R57XOiZr6I70IuymzG5amMpvk4TrGkjL17KM7hqsBtkH5JfcQ3Bl9cOs/wDRh/CEbLfCEI4eFqKEf0BGgPCrJ+UqfkCYtEJWuadlSPEI5WNzZen7q96+M5HG3dUJxS8txycHuqpXxlu/hPPf5WtY0FGaHFMkZfLclguLJRM13tsUVo35muaToRqncrZE2RIpf9UxV8rxbmyZdddVd+CUEOH4fFHG0A5RfRUzwxQOkxiLKCQ+TLE30N3OV21NVDQUzBO9xOX4WMLj+QS2yyEey2OyhytuudNjeHVRLIKpjpBuw6OH0K7ueHaqpsuSZEMQd8QCX+J+HIa6ldLA0NlYL6DdHqivo4Beepij/E4Be0tVS18EppZ45rCxyOBUX6Gf7KVp5oue+nqPBIw+ElNXDMUfvkb3jMC61kn8TxcrFp3Zcr2vOYdkRwfnx8qamncNfEw6gFW0uUmeGpvsvXDIYnRgN76IuyJrBoq74e4o5QbHWR5BtzGuuP4TnTYpHK0Frhqss1wfZoyTyXQWu2yi1UDZPlC099Z3Cw1QdstHNMx8HIOmwyM/IFBfhMeY+BGZagAbKK6qbdK1IybJvD4HucX4AjTGiyX+G52vooi37gR9jxl6LRDWiml2R6yMGF/oqA45pwMdnICvzEJ2RwuJOgGqpHiosqsYme3bRIvm6G+wnspyXt0REkU0Re/QBuY+fkpbaYNINtVHx4AULGAaueAmChk9l7PfManmcBamgaBpsXH+E0cT4vi9HKYcNwiSoZbxTNc0A+Wpulz2QvAqMTsDrkt6DN+6supgZOzx9eqpffRpnoqiOvdiNaxuI4ZNBOD4ZCw3B9QrGbSFlAwZiTk36rxmGUralpd8V7C7tyilRFZrYxr4UvAsd6KkxOsoKSvkc6jNXK0+ImMvLf2RvhziWlrallKaGWCcj7N3JLf1tYhHn4ZA+pdIw+IO1LSp0FK2LW2vcpVv7B3+SnPaVB7vxJK5ugka15sOtv4UHh+qsRH02t3CPe1hrTibHt3EQv8AqkjDpjFK0tO2oV8Pcma+rH8xWaQHW0uD3C7U1fV0sQEM5s06AqDFUc6iikaflIQmavc2QtvZHin5Fqmhr/8ALKyLSRua3UFPWD1Ek9NDI64zNvqqTlrC61yrU4WxiGXDoNblrQDZJUJAVtjVPnDL9EJmeeYd1MqcWpo4DnJsgM2N0vMNjonUbF5aIPCfE7KanbDUuALdAe4TWOLaNrQTK23kqkFgPJdI36pva76E5jzjnFfvDHR02x0uk0sMspe86kr1vi2UiKNWTjSFds58lB+Ixyoadx++T+iZmRXS/wAaR5KOJ3UP0/JGpSQZrbGH2U1dK0Pg5gFVd5czqW6EH+6sGtrmwROc8iwF1Q3COKDC8eoqx5tGH8qU9mu0Vw46x1Rh8mQkZm2BHS6wZNydDFqjphEs9bViuygMZflZtidr2RN9fVh4a9rHShu9jlOqQsJgo6HEZKLiKKsllsOXUh7nDKfIHT1CMTYdwoWnLj00YABMQrH3B/De6CVaNDWPfZKramSkxV05Zy4pyLtG2a26KNqBIy43Ve1M4rqxtLw9XV81M0B07qm5Y1um2bUJygPu8PjOjRqSq26T0Gpl9orT2ovDMRkcTd7mtY0X2FrlJFKMxaRuDoifFWINxXHa2pa4ljpLR32yjRDaQhp8Wx0W2J1JzslcrGzAZ7tdC7pcgFR62mLp3ODVxopTHIyXsbO9U0CiE8YkaLhwvdPC2V2KT6Z6k0GI1eHO+xPh7FHJcN8lDlw8j5SrHCKeWiPW8TV1QA0iwUEY3Udd1JmoyNbFQX0pzFTWib2G2uLtAFLgjJtospoB2ROnpxbZAJzhhv0U6GDyXeGnFhopsUI7I7IRmweSAcQwtljndMfs422A+qcWwi2yT+MnWoXGPQSPytv8x/ZCmNCECIAtcDqxws7y7FW/7P8AFTi+CClrDmnpjyi8/OB8J/JVO+lmgmEnL+we0sDu9grB9mtLK7Bq2SJ5a4TDLc6GwWfKlo1Ym9j9j2FmsjjlppBBWRDwyW3CWZaHiB7wwyUQvvLYX/6pko8YvCI61jmSN0LuhXR9bRkZuaz81nbX5N2PNcLi1si4dhMFBQmOPxPkOaWTq4pM9pXEPuFL7hSE8+cEF4+VvX6puxDETK3k0pytPxO/ZVX7R4w2amcN/Fc91I1V6Ksrrg6+4l5cjc1xp0O69hktdezvY4NA6t8XqtaZji9zbXsNfRbjnBSkqmt00F/CR/ZNeE10lAIS4iSinAItvG47tSEQQ7Q6g2TbhD4p6YU8w8tDYoeB/K0PjY454myR2c1wuCok9I3sVrwzOWxSU878xY4tDj1siszAReysVGeo0LdRSaFDZKTxlMtTGNUNkjGYo7Bo9pWDTRFadmigUoRWnGgQGJULBbZS42LlEBZbS19FSaVFVFGeznaojTNV1KJjGaIRxBgtBUxc+pk5BZs4G1/oh+KcbUdOC2gaZn7ZtgEoYjjtZiLy6WTfp2StnS9N/wAzJfdvR7UzsyPpA9ros12XbY+qPcBY5TYZPJSVZEVNUm7ZDs122qS33d47+O5v5rq4jlgeVlRU7Oph9FCTll3SU0UsTiCNf1QaTCw2YusLeirnC+JsTwuzIZzJCP8Aal1H8I2OPy5n21CQ7+iTT9VlvFS8Gf8Az3DHEQtjYQ09OqrT2hTRuljhBu5vi9FLq+OKt7Hsp6ZsWb5nG5SlWSyVUjpZ3Fz3G5JT4sTl7Yl4m12D42l2zQe9kX4UihdjMcNXYMmY9l3HS5CEtbyn5st1o+Ql+YBzNbi2hWtHJuXL0wlVUzqCuqIJW+JgdGf8FTuGWvlkyH4zYN8tUIZVyVDi6d2Z+xceqnUc/KkaY3ZHX37KMC8j3wo8NdVxVJ1dId+mqYGOJjyk6tNikqmkkqGiV2lQNBNEbH/kNimLBK81sLxI3LOw5JG+YRQtnepG6HSDxFEqnqhsnxFOVHWlCK040CF0vREec2nppJnmzWNJKmxpTb0jTFsXZhseVhBmI08lXlfVPmqpJHaucb3K7YhXvqpnyvcSXm9uyGudqkdHqfT+mx4MSS8/kzNcrZi0Gq6sS7NELs6AaLCBZetK8KBp10cXt7LQsK7EXXhaoUVBwLSuT2qSWrzJ5IFNYtkF7Lri+MkeiIuj8loYkUY8vpVXkFlrmbbLpDOQRmH1Ux8FwuDqdHZz79FUvoPcN1zY6xvNdeJxH0Ka8DcySqr6iI2zVLtuwAH+FXcIcxoaOhTlwrSitp5zDVSwVLTmOU+Fw9EUV5MFKN6GeoIshkh8ZXenlkeHxVIAnjPitsQdiFxkHjKsMLRtTHULTiaVzMDkLTq5wafReLEH4NPpPrz/AEQ3uN14DcrFiqPR77Ojd10CxYoXybAr1YsUL14NVixYoKzxYsWICmpWqxYiV0eFc3bLFiBXRq1MfBkro8YY1uz2kO9FixGSi/p1/Bmr/Bi0Rb88Tmu87EWXCQ+IrFitR5ln/9k=&quot;&gt;&lt;b&gt;&lt;font style=&quot;font-size: 14px;&quot;&gt;&lt;br&gt;&lt;/font&gt;&lt;/b&gt;&lt;/div&gt;" style="text;html=1;align=center;verticalAlign=middle;resizable=0;points=[];autosize=1;strokeColor=none;fillColor=none;" vertex="1" parent="1">
          <mxGeometry x="160" y="794" width="180" height="200" as="geometry" />
        </mxCell>
        <mxCell id="El-sgP1DWGqVcRPQF3cg-25" value="&lt;div align=&quot;center&quot;&gt;&lt;b&gt;&lt;font style=&quot;font-size: 14px;&quot;&gt;SUCCESS STORIES&lt;/font&gt;&lt;/b&gt;&lt;/div&gt;" style="text;html=1;align=center;verticalAlign=middle;resizable=0;points=[];autosize=1;strokeColor=none;fillColor=none;" vertex="1" parent="1">
          <mxGeometry x="470" y="740" width="160" height="30" as="geometry" />
        </mxCell>
        <mxCell id="El-sgP1DWGqVcRPQF3cg-26" value="&lt;div&gt;“Partnering with [Your Company Name] was one of our best decisions.&amp;nbsp;&lt;/div&gt;&lt;div&gt;We didn’t just get a system—we got a partner&amp;nbsp;&lt;/div&gt;&lt;div&gt;who truly cared about our mission and helped us grow sustainably.”&lt;/div&gt;— Sara Thompson, Founder &amp;amp; CEO, GreenLeaf Organics" style="text;html=1;align=center;verticalAlign=middle;resizable=0;points=[];autosize=1;strokeColor=none;fillColor=none;" vertex="1" parent="1">
          <mxGeometry x="70" y="994" width="400" height="70" as="geometry" />
        </mxCell>
        <mxCell id="El-sgP1DWGqVcRPQF3cg-34" value="" style="shape=image;imageAspect=0;aspect=fixed;verticalLabelPosition=bottom;verticalAlign=top;image=data:image/jpeg;base64,/9j/4AAQSkZJRgABAQAAAQABAAD/2wCEAAkGBwgHBgkIBwgKCgkLDRYPDQwMDRsUFRAWIB0iIiAdHx8kKDQsJCYxJx8fLT0tMTU3Ojo6Iys/RD84QzQ5OjcBCgoKDQwNGg8PGjclHyU3Nzc3Nzc3Nzc3Nzc3Nzc3Nzc3Nzc3Nzc3Nzc3Nzc3Nzc3Nzc3Nzc3Nzc3Nzc3Nzc3N//AABEIAJQAzAMBIgACEQEDEQH/xAAcAAABBQEBAQAAAAAAAAAAAAADAAECBAUGBwj/xABBEAACAQIDBAUJCAEDAwUAAAABAgMAEQQSIQUiMUETUWFxkQYyQlKBkqHR4RQjM2JygrHBBxVT8ENzohYkY4Oj/8QAGgEAAgMBAQAAAAAAAAAAAAAAAQIAAwUEBv/EACkRAAICAQMDAgYDAAAAAAAAAAABAhEDBCExEkFRBRMiMjRhcfAUI7H/2gAMAwEAAhEDEQA/AOyjhZVAEjAcwQKcxSg6TMx5XQUJRARcBR/9n1qYEUjDMym3W1dhiJbB1Qvf7w5rm+6Kq7SkkXZ0+V7uENlK8TRUEKIpUkZtfxCP7qtj2jGGYKQSSBYyngeNBjxLWzIS+DheS4bILWFraUfpJVzLIeGmYJxpsLDGsWlgAfWPzqcoiMdrgA6G7HWgHsQ+8+zKVmFwbg5eHxozRtYP0guyjgtCwoiZCrWOQ2GvGpp0MTlbMQOBubVKHUmthhDJGYw0llO7YIKswqxsMx0PMUCdoGTeLL23NKJoX0WQm40sxoB8FlA3SZUbMQNTlqXROps0gBPWlDjSLMBvW5Fmt/dWG6OwzOGt+aoRMl0TZbZjm/TTEELvHh2UKyGUsRuFQQc57b86L0cZUgPa/qtUGW4wIvrYk8rUNopmJAdV/Z9akuHjVSEZ9NbBqksYGuZsxA1zVAUyrGs4mKN0dlHnhTc1KeNnRkDC5Hq3o0qKBcyEN+oUF0RhrK99D51QhWhSYwlA6qy8Nw/OpwxTFd9gTe1tRRUgjS4DsQddGBNShXMzqWNgdDcURRwkicFiPiKbLMbC0fvH5VJEYmyu+naKk/IZmBvbjQIRYvYGwuONyagTKRuiPxNSdHy/iyW6qdEsvnMOetFAAskrqylVuwtcNw+FCfOWNo1H7j8qsWYlrSOANeAoDB8x3m1PUKIrK+HJY78bi/okURnKXORyAOGW9MplItaK/PU1IhyhBdO4GiKgTSxhReGTh/tk1UxCrLG0hhYbwtuWrQ6OTdULfr36hizIIQMi6MPSoDLYNhHQxLuNw4ZaeWxZSyNYMPRp4BI0YuoB5a07GS4XKvtY1ApEkIjkcAPY72q1Mvm9Fj1btL7xiC2UacjROifMbMvdehY1DDfUAKxPaKd7KI88TA35LU7OCDkXhqb0pUYlSLaHr7KAyQkkzBd1gee7STNdrBrXPLhrQcTi4dn4VsTjpI4oYxmeR30Arx7yy/yTi9prLg9mk4fCByFdGs0gB015DnSykkNCLlwe0ysiKSVtbjccBTQzBoQ8QMiMAVYC4I6xXzbjPK/bGKkE2I2nM0ip0Q3gRlta31rtP8d/5BfDrgthy4czCWcIsvSWyKbAC1KppsslilHc9kVlIzAH3aiSuYnJ/wCNGVQV0ZdR10OzrpYe9TiPgjLkyjMg4eoKCVhDEdGbDhdONWN++oPjUWR7my69/VRFZV3Bd+jA/ZU1khUABbduSikv6t7cdagsTyIyWyhha9+FQUa0Tegp7clM0cKnzUH7KsG6gDLqO2oksSbK1/ZpUDQBjFbzVNvyUNliYXyqP21a3wPMY3HI0zSsi/htUA0VVEWo3PCoMsPZ4mrXSPc2RvaKbpP/AI38KIKRlrYHNncnqy0kVt7K7W6iop4oUfVgRb85oyRRWy5294/OmKFZGPpAQekBsOGSliARCNed+AoiRR6i7W/V9ad8LGesj9Z+dAsJQ9IYxZwB+mmkDq0TBxxsdOupwQoIgMx96ozRJZd5hvjixoMdbllIyRfNx/LRFRgeI77UlRFAGa/7qmFXkx9hpSyqIkGxGYe7SKubXYWHHdqRUD0j404CDjf3qJDyf/OGMxEZ2bhExP3cgd3hAtexFj/Ncj5MeTAxjpiNox/chvwmuAw7a7b/AC7snptobI2iMnRqHilu2pPnC3/lwrNwGKKwgIuWwFs3Mcq5cr+Kju0sPhtmrHsfYeETKmDwsadTLyoLeTuy02rgNoQwJE8MyuWQXBF+Y50P7DtV4ZpIsQHSVSLEhQh5XvxphseaDYShJ3Jja7stzmXqFv6qjralsd88alCj1YM4Nw4P7alq2pcX7qoeTzNLsLZ7yqRIcOmYZr20q/oDbeHtrQXBhNU6Fr6y+FJwTazj3TSsMxHP9VJhcjjccxUAJRlvcjXsqOt9LW7qe1+beNKwt5zeNQgxz9afGo5WDEgrc8dKnl7W8aYqetvbUIQ+8va6VFg7C2ZevnRSBe+o7qgexn8KICB6TrWh/enlHp30XKb6lqgR1N8BRFM4Nh1AIyeFGjMbjzEv+moKzkWMctqMJCFuUf4UxShlaNTqVHsFEEkbGzCw5G2hpszX81xUw7D0XPsoDcDRmJTew9tDnkiKqHaPRwaMJG/2nHsoWILkA9G97jgOV6lBTLIli5NHapCVeRS1QSU5ReOTwFSzk6iN/ChRZ1DtIp9JPCmBS+oWnzkei3u0jLp5knu0CGT5SYTD4zZkrbpkhVnUDi26QV9ovXj+LxsbSF8OjxQoAqAniBzr3RpMysMrDQ6ldLV887YBymSJrXJGXqrl1EUmmaGjnJxceyNrY2OxuKxarIJ8TCLZoEdVHibaVu7RwWLwg/1SBZMLhAcsxwuLSRDmPNQTrc8hXA7C2yuz8WHnZsnWOIrvNk4rCbd2hFh8Hj5ZulO/DYHIObDS4051yqD6q8mlLLFY7vg7zyOM3/p3CNjQOlYFgCNQpOl/ZW1eM+oDQoz0aKixSKijKoy8AKmHJP4b99q00qVHn5T6m2TvGTckGm3OYprt1P4U+bTg3sWiRD/d8svjSspGmU0gSeT+7SLW0IbwqEI/d39HxpXiPNfGpBtfNb3aYsfVJ/bUAQ+7vYW8aRyDmPep2fTWNh+w1ElSOd+vIagBrIx1sfbQwE5n/wAvrUwyjkSevIai0i34H3fpRAyirSgheiXW/wD1L/1RLSsMpSMA883ChqklwelS4Fh939aJabiZE9z607OeL/dia9INSiE9jWoisSLkKP3UO0vN1P7PrUlQg7slh+j60B9wgzgg2HvULEPLZbIvnC+9Ux0t7Z1P7frQsUr9FcyLcEeh299QIZGZtcoA/VRbm1ggPc1BjjdUt0q6fk+tOSVjLvKmQC5OTgPGgMgxZ2HmoP3fSgSYpYgb3Y9h/usvEbR6RsiNunTSs/FY6PDKs2JYgAnLobd+nOhR0xxd2D8ptqYvGQrszBAxTYlspKneVPSa/dXl02G6CWWLFixUkMG5GvSNi4aTFbeXHs94li+7FjYX0P8AHxonlN5K4La8zTMXw8rLlMka5g3VcddZOq1PTl6XwjZ0emXtdS5Z41iIcNPN92pBU6leFq6TyG2lJsbyjiTDKFSXDlXFtGsb61vYb/H2Gw7npNoMddAsJB/mrm0Ni4PZn2J8Gj9LnId3G8wI/jspcGqi8kYofUaV+1KTPQ8Bi0xsAkgFtLFWbUVYDMBqoP7hXCbJxfQ4kRLult4NfjXX4fGdMQszCM9Z4GtlrcwHClaLt2Y+aB+6nOfqA7zUQrg2zqe9frT3f/cT3frSiIezdQ8aW/yC+9SUEggst+6myEah0v3VCD719R8RSJf0U8WFQs/rL4UQqRqGW/dUIiJLW8w+xqbNIBuxN7wqV3PqH2GokNzKjuvUCQDPfeRge8UPNIORNEOe9gY/jSvKB6PxoiGeIyGG/IR30ZVHNn8aqo+GGgMfvUUfZyvBPH605zotCIlQQz2560wTXWWQe2owmIJl3VuPWpD7O5KkpmHO+hpS6kwwjNvOfvvVTaCHoCBJJqwHEddPkwwOoUD9ZoOMMQjUKU1dfTNEVtFyFD0Yu7kkczWZ5VYj7JsaZwxXNZdOrn/FXkMLKCCL/llNq4z/ACdikg2JHGjWeSQk7xOgqPZWGDuSQPZOMDL0sr3Sx8a3BNBPEsbWYW49tchsUKuwI/tMsfSGMSbzhd06jXna9rfKrexY8S204oXkRFsTYnW3X21FRoK7NnYq4rDzl8SxPSOxWw9G9xf591dSeNmF1I1rBw6/+/dEkdo4mtZh3cOytxZFKgGvO66vfa/BuaRP2URVDHoRdOV+VZnlJhUn2ZK5JR0Iy6fCtUSAAgAsO6uZ8qcfIuMwWEhGhGaS/Ik2H/O2rPTsallvwJrp9OOvJSXAySzqqRyBob2aZRlbl13PdXQb4i395iTftrN2ZjIzJO7ElQNOy9LH7VjXC/dvlvcAnlW6n3ZkUqNrYuMklmmwjl0aK/R8wQO+tnIbfiN4CuD2Jjj/AKngzmJEjlCQTfUfSu2CoeDPb/uGozjyJJhCjcpH9oFLo2B/FYewU4VLat/+hphlLaMeOtpDQE2EVYf9Q25bopWNzvHwFQChvOaS/wCunZF4ZyO56hByhPpkewVFlsPxT7AKi6gFR0jm59c1JVXL5zEc7saIBZGuDnPhQ8jf7p90U7KnAFr/AKzQVAN95tDb8Q1BW0U1ZSQdQANSF4Hwov2iIC1zfryfSgRyYjQCA6a6yA/3RN86ZWF/zj51Yc0ZeP8AAySICpBJPXlo7zx3Knh1FaArS5spRsvXnHzqfSN6jHtuPnSUdEZ0hhNEuiiw7I/pQMSySMqkAi4PmUQ9KWzBHNxa1x86i0kqOt1Y72nA/wB0xU35CrLEutrX6k+leaf5VxSz4pIU1WKIG1rXJP0Fekh5TcZJV7f+GvHvLz7bH5RYl8XhpEQkZWuGBS1gdOFLPgv0+80H8hGlk2ZOFsTh8SGjDjMAdCOPdXSp9oG0Ri8WkJdYyT0YIv23P8CuY/xi5Mm0YM1xdX09tdxjFw5KJK2TOcoHWOJ/uq48WaVFrZZWNzm3WsC19dTr/Fq2kCEDUeysnZuGixMP2mBxJHNvg34jlarZwk0f4T27DXlc03LLKTXc9LixxjjjG96LkzqsZtyFcLt7aggGLx2IeLow2SBl13j5t/C/srpcXiJYYWGIXS2jIa4vFbOkxEOHjwkrLI7dJMotll0tlPKx3vGtP0uV9b/BneoxrpRW2Y+LmwuaOHEsZGNnIspA566/Cm2okghwUBQhg7l2zXFtB48K3sPs95HDgthYooQgjhktcgAX05kcax/KQs02FgJe4DFjITc+aL/CthN0jKaSL2xrNtvZ8foxuGYnW9x9a9Kvh+qP3RXmHkq+fyhR2DHIwGlem9Kz2KrIB+nWnOPM1YnEDKQFiOnqUlOGTS0fuVLpsurLJ32pxNzyyAH8vGoU7ES0B4LHb9NNeH1EIt6tP0jAk5X670ulN7BZL/pqBtDfcL6I78tRIg5Inu1J2YqRv8PVtUS7DlLbsFQDfgGvQAC6oD1kUzvhs2oj8BTtJJmDBJT1XGlAmSSVlYZxprrajQnUU1D3JvEb62uT/VE+8IscnZx+VV4izoGEyWP5PrRxG5GsoP7frTnLHgsRGQC11seJ1qWWQDQqw67m/hVU5oxczniBbox86OA997EAfst/dBlikEAkvq0VqG8ZAXeTjYakVLIQSRIc3Xl5eNDkJE6KJR136P60Bm9iZ6QA2CHrOe1ee+X2H+1bRBbD2bo1tIrtve0V6E+tjJIrDmAttPGuO8tikbqkIUv0dwvULnXjUe6LcD/sOW8gI+h2ttAAso6Eec1766f3XabQxSwYPEYhJOkGHRimZRckCwHvae2uG8jTN/rOIMozJLDctwvZq6raJS8eChYESYlVZSRYkb9q5cs+jFJ+Ea+CPXkjH7m35ML9hwcKxAjDMoJXjkPWK6Jn0N9T1isfZjhcNaNCBwyH0eyrBmcKUYZeqvKRn8Nnp547kVNuSQLhXMkljwAHM8hWLhE6Ex2BUqoB7NCNaltzCYjEvGgACGRcxJtzqCFpQJ4I80MljrpYa2+FbPpG8JP7mX6ntKKNjD5UgLPoTxsO2uN8qJVfbr5blYYQuvIm5P8AVdnArrAFkZbam/WK8t2ziw+2dqdGxKmYxpY8Mtl/qtdmUzp/I0ZsZBKtiWnzcLX416UXlAH3a2P5xXnfk3H0D4FVtdCA1zrevQFD5cpMYtrVnYz87+ILdmAzItv1AinJkX0Y7W9ah5nUHejOnUaR6Q8HjA/SahRZIySNpkX3/pS37ruAEcs3Go3ZfTW/Vaos8qkAyRc+R+dQl+SbPIAT0Q9/6VDPMw1iW/Y9IM51Z4yvVlNQ3lW8ciheQcG9ShWxrSKSSi6k+mNKEGf0wt/+4DTmSVrnNHpp5p1+NDAk5vH7n1pipu+CnYk3DzAdhX5U+gItNOTfhu/KqEbI2jR3IJt53zq0skZP4YJtaxc1ZRzqSLihCbu83tKi3wqak5RlklbXmR8qoNJGV/CNwL2zG381Yi6Ib2Vu3j86VoeM7ZZUNcF5ZFHDiNPhTS2YKM0hAPnZl+VDYqUGVVPexNRKJmGaMg29ZvnQLOuuCVlC5hNPlHdb+Kwtu7PGOEInkcRshLAm7OOIGliRetxhEguU07Wb51m7anXD4J8aigvCLjMxI1IGvw8KEto2WaaS95HG7Gwoi8oZwGdssBQBkCgAWNaO0Zwm0MDchh0xdjwyEWt8azvJ/FyzeU+PbE5WH2fPEAtr6610uAwkePMhdlZkRUFuK2La+3+qytblrTSa7nptFif8lJ9jbjVkPTxC6ta6jX202KM0oyxyWv8Al4VHB4fEQR5L7g81hy7xzqrtHaUOEidS8bysPNja5PyrzPY9F3MjGiY4h8ks04w8bsZG0RWtoBbiaKY5INmxRwrd0IBI5/8ANaqYfHHEYHFGQZERiqqgKixF+JGp0FaMBLYE6kZl4sa9R6diUMCfk89r8jlnafY2oheAF+KjKRXiGzj9o2nLNKwyNO72PMljr8a9nja2Aaa+YdHm1PZXj2DdcPi5o5Ii5WQkvECNL3/uuyXKOJ8Hd7DdWxsDKcu8B113VnGX77S+pyjSuA2JIjYrDtc2Nj22vXe50tYRyEHheQ1euDM1TSkrLGUa5pntw0A1qJFtBNMbcwot/FAYJlzjpM4/ObHupkC2BvJb1SzafGpRzOV8B0JLMDNIbdg5jupSrGVGZ3v12HyqDhSg3G0NswJ51XnHRyJlWQg39MijQrlSDkZVN5ZLgX0yg+FqiAjIjkyXKg62+VCVEA0Gp42c60MqqghUNidbufnRoVyCzZALrLKjcju6nw1oZZv96Y+78qEqxlWvGbg6b5Pt40lWFhopHI3ZvnTUVOVmTGytMR0UQGvBByqcpXKpEUQzakBBSpUSlcMtoEQrlijBN/RHKrSlchvFGe9BSpUGXYhxFFqwijGttEFM7BWyCOO1vUFKlSFkuAMyRdGx6CK9ifMFZm0oopti4lWijF8Mxuq2N7UqVGXyMrx7ZYnI7LmdJMJKp3xMq36w2hFWDtHE7O8rsIMO91xISGRW1BXKpHtFzT0qxcu+Fpnt8O2ZP7HoEmz4ZQDK0jgjgz3FBk2fg4YsyYeM6E6i9KlWBJbG2mYoxEnSS3IIJItbQCw0HjV/BknBsSdQePdSpV6jQ/TRPN6z6iQTCMf9PaL0cgHsIrynYajFtJ09y2YnMDY8aVKuh8o5nwdRsYlcdho+K57a867PdMsK5BlZjca24GnpV0QMj1D54/vcuxwxB9I107Kd1jufukPspUqJQ+AUSRyCUPEhytpu9lQYIB+FGbcLrSpUUVvgHjCgjktFELJcbg6qCxUMQI4xr6tKlRRRLkRyO9mii78gqpIIy5+5h4+oKVKmQmTg/9k=;" vertex="1" parent="1">
          <mxGeometry x="520" y="820" width="204" height="148" as="geometry" />
        </mxCell>
        <mxCell id="El-sgP1DWGqVcRPQF3cg-35" value="" style="shape=image;imageAspect=0;aspect=fixed;verticalLabelPosition=bottom;verticalAlign=top;image=data:image/jpeg;base64,/9j/4AAQSkZJRgABAQAAAQABAAD/2wCEAAkGBwgHBgkIBwgKCgkLDRYPDQwMDRsUFRAWIB0iIiAdHx8kKDQsJCYxJx8fLT0tMTU3Ojo6Iys/RD84QzQ5OjcBCgoKDQwNGg8PGjclHyU3Nzc3Nzc3Nzc3Nzc3Nzc3Nzc3Nzc3Nzc3Nzc3Nzc3Nzc3Nzc3Nzc3Nzc3Nzc3Nzc3N//AABEIAJQAzAMBIgACEQEDEQH/xAAcAAABBQEBAQAAAAAAAAAAAAADAAECBAUGBwj/xABBEAACAQIDBAUJCAEDAwUAAAABAgMAEQQSIQUiMUETUWFxkQYyQlKBkqHR4RQjM2JygrHBBxVT8ENzohYkY4Oj/8QAGgEAAgMBAQAAAAAAAAAAAAAAAQIAAwUEBv/EACkRAAICAQMDAgYDAAAAAAAAAAABAhEDBCExEkFRBRMiMjRhcfAUI7H/2gAMAwEAAhEDEQA/AOyjhZVAEjAcwQKcxSg6TMx5XQUJRARcBR/9n1qYEUjDMym3W1dhiJbB1Qvf7w5rm+6Kq7SkkXZ0+V7uENlK8TRUEKIpUkZtfxCP7qtj2jGGYKQSSBYyngeNBjxLWzIS+DheS4bILWFraUfpJVzLIeGmYJxpsLDGsWlgAfWPzqcoiMdrgA6G7HWgHsQ+8+zKVmFwbg5eHxozRtYP0guyjgtCwoiZCrWOQ2GvGpp0MTlbMQOBubVKHUmthhDJGYw0llO7YIKswqxsMx0PMUCdoGTeLL23NKJoX0WQm40sxoB8FlA3SZUbMQNTlqXROps0gBPWlDjSLMBvW5Fmt/dWG6OwzOGt+aoRMl0TZbZjm/TTEELvHh2UKyGUsRuFQQc57b86L0cZUgPa/qtUGW4wIvrYk8rUNopmJAdV/Z9akuHjVSEZ9NbBqksYGuZsxA1zVAUyrGs4mKN0dlHnhTc1KeNnRkDC5Hq3o0qKBcyEN+oUF0RhrK99D51QhWhSYwlA6qy8Nw/OpwxTFd9gTe1tRRUgjS4DsQddGBNShXMzqWNgdDcURRwkicFiPiKbLMbC0fvH5VJEYmyu+naKk/IZmBvbjQIRYvYGwuONyagTKRuiPxNSdHy/iyW6qdEsvnMOetFAAskrqylVuwtcNw+FCfOWNo1H7j8qsWYlrSOANeAoDB8x3m1PUKIrK+HJY78bi/okURnKXORyAOGW9MplItaK/PU1IhyhBdO4GiKgTSxhReGTh/tk1UxCrLG0hhYbwtuWrQ6OTdULfr36hizIIQMi6MPSoDLYNhHQxLuNw4ZaeWxZSyNYMPRp4BI0YuoB5a07GS4XKvtY1ApEkIjkcAPY72q1Mvm9Fj1btL7xiC2UacjROifMbMvdehY1DDfUAKxPaKd7KI88TA35LU7OCDkXhqb0pUYlSLaHr7KAyQkkzBd1gee7STNdrBrXPLhrQcTi4dn4VsTjpI4oYxmeR30Arx7yy/yTi9prLg9mk4fCByFdGs0gB015DnSykkNCLlwe0ysiKSVtbjccBTQzBoQ8QMiMAVYC4I6xXzbjPK/bGKkE2I2nM0ip0Q3gRlta31rtP8d/5BfDrgthy4czCWcIsvSWyKbAC1KppsslilHc9kVlIzAH3aiSuYnJ/wCNGVQV0ZdR10OzrpYe9TiPgjLkyjMg4eoKCVhDEdGbDhdONWN++oPjUWR7my69/VRFZV3Bd+jA/ZU1khUABbduSikv6t7cdagsTyIyWyhha9+FQUa0Tegp7clM0cKnzUH7KsG6gDLqO2oksSbK1/ZpUDQBjFbzVNvyUNliYXyqP21a3wPMY3HI0zSsi/htUA0VVEWo3PCoMsPZ4mrXSPc2RvaKbpP/AI38KIKRlrYHNncnqy0kVt7K7W6iop4oUfVgRb85oyRRWy5294/OmKFZGPpAQekBsOGSliARCNed+AoiRR6i7W/V9ad8LGesj9Z+dAsJQ9IYxZwB+mmkDq0TBxxsdOupwQoIgMx96ozRJZd5hvjixoMdbllIyRfNx/LRFRgeI77UlRFAGa/7qmFXkx9hpSyqIkGxGYe7SKubXYWHHdqRUD0j404CDjf3qJDyf/OGMxEZ2bhExP3cgd3hAtexFj/Ncj5MeTAxjpiNox/chvwmuAw7a7b/AC7snptobI2iMnRqHilu2pPnC3/lwrNwGKKwgIuWwFs3Mcq5cr+Kju0sPhtmrHsfYeETKmDwsadTLyoLeTuy02rgNoQwJE8MyuWQXBF+Y50P7DtV4ZpIsQHSVSLEhQh5XvxphseaDYShJ3Jja7stzmXqFv6qjralsd88alCj1YM4Nw4P7alq2pcX7qoeTzNLsLZ7yqRIcOmYZr20q/oDbeHtrQXBhNU6Fr6y+FJwTazj3TSsMxHP9VJhcjjccxUAJRlvcjXsqOt9LW7qe1+beNKwt5zeNQgxz9afGo5WDEgrc8dKnl7W8aYqetvbUIQ+8va6VFg7C2ZevnRSBe+o7qgexn8KICB6TrWh/enlHp30XKb6lqgR1N8BRFM4Nh1AIyeFGjMbjzEv+moKzkWMctqMJCFuUf4UxShlaNTqVHsFEEkbGzCw5G2hpszX81xUw7D0XPsoDcDRmJTew9tDnkiKqHaPRwaMJG/2nHsoWILkA9G97jgOV6lBTLIli5NHapCVeRS1QSU5ReOTwFSzk6iN/ChRZ1DtIp9JPCmBS+oWnzkei3u0jLp5knu0CGT5SYTD4zZkrbpkhVnUDi26QV9ovXj+LxsbSF8OjxQoAqAniBzr3RpMysMrDQ6ldLV887YBymSJrXJGXqrl1EUmmaGjnJxceyNrY2OxuKxarIJ8TCLZoEdVHibaVu7RwWLwg/1SBZMLhAcsxwuLSRDmPNQTrc8hXA7C2yuz8WHnZsnWOIrvNk4rCbd2hFh8Hj5ZulO/DYHIObDS4051yqD6q8mlLLFY7vg7zyOM3/p3CNjQOlYFgCNQpOl/ZW1eM+oDQoz0aKixSKijKoy8AKmHJP4b99q00qVHn5T6m2TvGTckGm3OYprt1P4U+bTg3sWiRD/d8svjSspGmU0gSeT+7SLW0IbwqEI/d39HxpXiPNfGpBtfNb3aYsfVJ/bUAQ+7vYW8aRyDmPep2fTWNh+w1ElSOd+vIagBrIx1sfbQwE5n/wAvrUwyjkSevIai0i34H3fpRAyirSgheiXW/wD1L/1RLSsMpSMA883ChqklwelS4Fh939aJabiZE9z607OeL/dia9INSiE9jWoisSLkKP3UO0vN1P7PrUlQg7slh+j60B9wgzgg2HvULEPLZbIvnC+9Ux0t7Z1P7frQsUr9FcyLcEeh299QIZGZtcoA/VRbm1ggPc1BjjdUt0q6fk+tOSVjLvKmQC5OTgPGgMgxZ2HmoP3fSgSYpYgb3Y9h/usvEbR6RsiNunTSs/FY6PDKs2JYgAnLobd+nOhR0xxd2D8ptqYvGQrszBAxTYlspKneVPSa/dXl02G6CWWLFixUkMG5GvSNi4aTFbeXHs94li+7FjYX0P8AHxonlN5K4La8zTMXw8rLlMka5g3VcddZOq1PTl6XwjZ0emXtdS5Z41iIcNPN92pBU6leFq6TyG2lJsbyjiTDKFSXDlXFtGsb61vYb/H2Gw7npNoMddAsJB/mrm0Ni4PZn2J8Gj9LnId3G8wI/jspcGqi8kYofUaV+1KTPQ8Bi0xsAkgFtLFWbUVYDMBqoP7hXCbJxfQ4kRLult4NfjXX4fGdMQszCM9Z4GtlrcwHClaLt2Y+aB+6nOfqA7zUQrg2zqe9frT3f/cT3frSiIezdQ8aW/yC+9SUEggst+6myEah0v3VCD719R8RSJf0U8WFQs/rL4UQqRqGW/dUIiJLW8w+xqbNIBuxN7wqV3PqH2GokNzKjuvUCQDPfeRge8UPNIORNEOe9gY/jSvKB6PxoiGeIyGG/IR30ZVHNn8aqo+GGgMfvUUfZyvBPH605zotCIlQQz2560wTXWWQe2owmIJl3VuPWpD7O5KkpmHO+hpS6kwwjNvOfvvVTaCHoCBJJqwHEddPkwwOoUD9ZoOMMQjUKU1dfTNEVtFyFD0Yu7kkczWZ5VYj7JsaZwxXNZdOrn/FXkMLKCCL/llNq4z/ACdikg2JHGjWeSQk7xOgqPZWGDuSQPZOMDL0sr3Sx8a3BNBPEsbWYW49tchsUKuwI/tMsfSGMSbzhd06jXna9rfKrexY8S204oXkRFsTYnW3X21FRoK7NnYq4rDzl8SxPSOxWw9G9xf591dSeNmF1I1rBw6/+/dEkdo4mtZh3cOytxZFKgGvO66vfa/BuaRP2URVDHoRdOV+VZnlJhUn2ZK5JR0Iy6fCtUSAAgAsO6uZ8qcfIuMwWEhGhGaS/Ik2H/O2rPTsallvwJrp9OOvJSXAySzqqRyBob2aZRlbl13PdXQb4i395iTftrN2ZjIzJO7ElQNOy9LH7VjXC/dvlvcAnlW6n3ZkUqNrYuMklmmwjl0aK/R8wQO+tnIbfiN4CuD2Jjj/AKngzmJEjlCQTfUfSu2CoeDPb/uGozjyJJhCjcpH9oFLo2B/FYewU4VLat/+hphlLaMeOtpDQE2EVYf9Q25bopWNzvHwFQChvOaS/wCunZF4ZyO56hByhPpkewVFlsPxT7AKi6gFR0jm59c1JVXL5zEc7saIBZGuDnPhQ8jf7p90U7KnAFr/AKzQVAN95tDb8Q1BW0U1ZSQdQANSF4Hwov2iIC1zfryfSgRyYjQCA6a6yA/3RN86ZWF/zj51Yc0ZeP8AAySICpBJPXlo7zx3Knh1FaArS5spRsvXnHzqfSN6jHtuPnSUdEZ0hhNEuiiw7I/pQMSySMqkAi4PmUQ9KWzBHNxa1x86i0kqOt1Y72nA/wB0xU35CrLEutrX6k+leaf5VxSz4pIU1WKIG1rXJP0Fekh5TcZJV7f+GvHvLz7bH5RYl8XhpEQkZWuGBS1gdOFLPgv0+80H8hGlk2ZOFsTh8SGjDjMAdCOPdXSp9oG0Ri8WkJdYyT0YIv23P8CuY/xi5Mm0YM1xdX09tdxjFw5KJK2TOcoHWOJ/uq48WaVFrZZWNzm3WsC19dTr/Fq2kCEDUeysnZuGixMP2mBxJHNvg34jlarZwk0f4T27DXlc03LLKTXc9LixxjjjG96LkzqsZtyFcLt7aggGLx2IeLow2SBl13j5t/C/srpcXiJYYWGIXS2jIa4vFbOkxEOHjwkrLI7dJMotll0tlPKx3vGtP0uV9b/BneoxrpRW2Y+LmwuaOHEsZGNnIspA566/Cm2okghwUBQhg7l2zXFtB48K3sPs95HDgthYooQgjhktcgAX05kcax/KQs02FgJe4DFjITc+aL/CthN0jKaSL2xrNtvZ8foxuGYnW9x9a9Kvh+qP3RXmHkq+fyhR2DHIwGlem9Kz2KrIB+nWnOPM1YnEDKQFiOnqUlOGTS0fuVLpsurLJ32pxNzyyAH8vGoU7ES0B4LHb9NNeH1EIt6tP0jAk5X670ulN7BZL/pqBtDfcL6I78tRIg5Inu1J2YqRv8PVtUS7DlLbsFQDfgGvQAC6oD1kUzvhs2oj8BTtJJmDBJT1XGlAmSSVlYZxprrajQnUU1D3JvEb62uT/VE+8IscnZx+VV4izoGEyWP5PrRxG5GsoP7frTnLHgsRGQC11seJ1qWWQDQqw67m/hVU5oxczniBbox86OA997EAfst/dBlikEAkvq0VqG8ZAXeTjYakVLIQSRIc3Xl5eNDkJE6KJR136P60Bm9iZ6QA2CHrOe1ee+X2H+1bRBbD2bo1tIrtve0V6E+tjJIrDmAttPGuO8tikbqkIUv0dwvULnXjUe6LcD/sOW8gI+h2ttAAso6Eec1766f3XabQxSwYPEYhJOkGHRimZRckCwHvae2uG8jTN/rOIMozJLDctwvZq6raJS8eChYESYlVZSRYkb9q5cs+jFJ+Ea+CPXkjH7m35ML9hwcKxAjDMoJXjkPWK6Jn0N9T1isfZjhcNaNCBwyH0eyrBmcKUYZeqvKRn8Nnp547kVNuSQLhXMkljwAHM8hWLhE6Ex2BUqoB7NCNaltzCYjEvGgACGRcxJtzqCFpQJ4I80MljrpYa2+FbPpG8JP7mX6ntKKNjD5UgLPoTxsO2uN8qJVfbr5blYYQuvIm5P8AVdnArrAFkZbam/WK8t2ziw+2dqdGxKmYxpY8Mtl/qtdmUzp/I0ZsZBKtiWnzcLX416UXlAH3a2P5xXnfk3H0D4FVtdCA1zrevQFD5cpMYtrVnYz87+ILdmAzItv1AinJkX0Y7W9ah5nUHejOnUaR6Q8HjA/SahRZIySNpkX3/pS37ruAEcs3Go3ZfTW/Vaos8qkAyRc+R+dQl+SbPIAT0Q9/6VDPMw1iW/Y9IM51Z4yvVlNQ3lW8ciheQcG9ShWxrSKSSi6k+mNKEGf0wt/+4DTmSVrnNHpp5p1+NDAk5vH7n1pipu+CnYk3DzAdhX5U+gItNOTfhu/KqEbI2jR3IJt53zq0skZP4YJtaxc1ZRzqSLihCbu83tKi3wqak5RlklbXmR8qoNJGV/CNwL2zG381Yi6Ib2Vu3j86VoeM7ZZUNcF5ZFHDiNPhTS2YKM0hAPnZl+VDYqUGVVPexNRKJmGaMg29ZvnQLOuuCVlC5hNPlHdb+Kwtu7PGOEInkcRshLAm7OOIGliRetxhEguU07Wb51m7anXD4J8aigvCLjMxI1IGvw8KEto2WaaS95HG7Gwoi8oZwGdssBQBkCgAWNaO0Zwm0MDchh0xdjwyEWt8azvJ/FyzeU+PbE5WH2fPEAtr6610uAwkePMhdlZkRUFuK2La+3+qytblrTSa7nptFif8lJ9jbjVkPTxC6ta6jX202KM0oyxyWv8Al4VHB4fEQR5L7g81hy7xzqrtHaUOEidS8bysPNja5PyrzPY9F3MjGiY4h8ks04w8bsZG0RWtoBbiaKY5INmxRwrd0IBI5/8ANaqYfHHEYHFGQZERiqqgKixF+JGp0FaMBLYE6kZl4sa9R6diUMCfk89r8jlnafY2oheAF+KjKRXiGzj9o2nLNKwyNO72PMljr8a9nja2Aaa+YdHm1PZXj2DdcPi5o5Ii5WQkvECNL3/uuyXKOJ8Hd7DdWxsDKcu8B113VnGX77S+pyjSuA2JIjYrDtc2Nj22vXe50tYRyEHheQ1euDM1TSkrLGUa5pntw0A1qJFtBNMbcwot/FAYJlzjpM4/ObHupkC2BvJb1SzafGpRzOV8B0JLMDNIbdg5jupSrGVGZ3v12HyqDhSg3G0NswJ51XnHRyJlWQg39MijQrlSDkZVN5ZLgX0yg+FqiAjIjkyXKg62+VCVEA0Gp42c60MqqghUNidbufnRoVyCzZALrLKjcju6nw1oZZv96Y+78qEqxlWvGbg6b5Pt40lWFhopHI3ZvnTUVOVmTGytMR0UQGvBByqcpXKpEUQzakBBSpUSlcMtoEQrlijBN/RHKrSlchvFGe9BSpUGXYhxFFqwijGttEFM7BWyCOO1vUFKlSFkuAMyRdGx6CK9ifMFZm0oopti4lWijF8Mxuq2N7UqVGXyMrx7ZYnI7LmdJMJKp3xMq36w2hFWDtHE7O8rsIMO91xISGRW1BXKpHtFzT0qxcu+Fpnt8O2ZP7HoEmz4ZQDK0jgjgz3FBk2fg4YsyYeM6E6i9KlWBJbG2mYoxEnSS3IIJItbQCw0HjV/BknBsSdQePdSpV6jQ/TRPN6z6iQTCMf9PaL0cgHsIrynYajFtJ09y2YnMDY8aVKuh8o5nwdRsYlcdho+K57a867PdMsK5BlZjca24GnpV0QMj1D54/vcuxwxB9I107Kd1jufukPspUqJQ+AUSRyCUPEhytpu9lQYIB+FGbcLrSpUUVvgHjCgjktFELJcbg6qCxUMQI4xr6tKlRRRLkRyO9mii78gqpIIy5+5h4+oKVKmQmTg/9k=;" vertex="1" parent="1">
          <mxGeometry x="840" y="832" width="181.95" height="132" as="geometry" />
        </mxCell>
        <mxCell id="El-sgP1DWGqVcRPQF3cg-41" value="&lt;br&gt;&lt;div&gt;&lt;b&gt;&lt;font style=&quot;font-size: 14px;&quot;&gt;&lt;br&gt;&lt;/font&gt;&lt;/b&gt;&lt;/div&gt;&lt;div&gt;&lt;img height=&quot;148&quot; width=&quot;156&quot; src=&quot;data:image/jpeg;base64,/9j/4AAQSkZJRgABAQAAAQABAAD/2wCEAAkGBwgHBgkIBwgKCgkLDRYPDQwMDRsUFRAWIB0iIiAdHx8kKDQsJCYxJx8fLT0tMTU3Ojo6Iys/RD84QzQ5OjcBCgoKDQwNGg8PGjclHyU3Nzc3Nzc3Nzc3Nzc3Nzc3Nzc3Nzc3Nzc3Nzc3Nzc3Nzc3Nzc3Nzc3Nzc3Nzc3Nzc3N//AABEIAJQAnAMBIgACEQEDEQH/xAAcAAACAgMBAQAAAAAAAAAAAAAFBgQHAAIDAQj/xAA6EAABAwIEBAMFBwMEAwAAAAABAAIDBBEFEiExBhNBUSJhcQcUMkKBI1JykaHR4WKxwRVDgrIWJDP/xAAaAQACAwEBAAAAAAAAAAAAAAABAgADBAUG/8QAJhEAAwACAgECBwEBAAAAAAAAAAECAxESITEEEyIyM0FRYXEUBf/aAAwDAQACEQMRAD8AUo6bT4ypUFKAR41ziKmRKbF4HZtMCPiH5rYUV/mC3jBXcNJU5A4Ayow+43UeHCXF9wUebFm3U2lpWqcg8AFBhDyNTZTafBzmFyjrKZtl2ZCAirI8ZFoKeSmFgdFLkfM5pAK7NjWxhupyB7YvYjSzSX16II7Dpc/VO80ALVDfSNvspyCoAcdDMY+i5Ow+a+oCZRC0NAC0dC1TkD22LhoZC0jLdQpsMdf4QmmWIW0UGZlkeRPbYsy4a+3whDp6J7D8Ka5QockIduEHQeGhZkp5OX8KgvgkzfAnD3IOCjvw27twl2MpIsFW021RGCoitqUjRVTmqXHiLmt3KGxx8iqYu6lR1EPdV8MYc3qVu3HXjq5TZNFiMnhvuplPURfeVaNx93crvHxE5vUqELSZURW+JdBUQgXLwAq0j4lJIALipMuNz8hzsp+qhCyY5oHC4kbbvddhJERo4H6qnm43U59XnIDqAbBSGcUSROFnC3bNZEJasj2dwoznx33H5qupeK6p/wD8y0Adzcr2l4lfJLypHnPa+g0UIWJnj7rk98f3gkh/EeQ2c8rR3EjT86BB0e+M9Qoc2Q9QlN3EIPzfquT8dBG/6qEGOXL3CjkNvuEuuxpp+ZcjjLfvKAY1AsA3C5ksvuEsf600D4locab95QhxoOG56u2U79gibeCK3Lext+FWjwngscVHG90YLiBe4TUKCMM+Afkk8k8HzxW8L1VOxziL5fJAzSvD8pbqvoHiHDYxBIcn6KoqmmYMVe0CyCoZLYEiwieRt2iyxuE1ObLld62TpFTNYxo7o1TUcQhu5mY9B3PZK7Y6xpleR4U+ne10+nUBeVr38p1xbxJg4lMcVa2J5b4RqN9StMKwCXGJHcpjuV0NtFan12I570hUJe+MNIIHX1uo88DsxIbZoHZWrT+z5zYzzpG7iwUXFuDZo2XgDXDtZDmhvbZV0TiHaG3mimGgNmEmbMTuAFNreFcSizOEBGvQboa2Cqp5spL45B0eLBFUmK4aCGJUlrSMYQHC4udlAELydkXpJGzxuZO1om7n/C70tG2SUNFib7BCiStgQUkmhymy6xYXUy6RwvPoFYFBw2+WIOMdvonTB8BhgiaDE29uyVUmNUtFGPwTEGAk0soA8lBmppYnZZGOB8wvpeowiKSHKI2pF4n4R57XOiZr6I70IuymzG5amMpvk4TrGkjL17KM7hqsBtkH5JfcQ3Bl9cOs/wDRh/CEbLfCEI4eFqKEf0BGgPCrJ+UqfkCYtEJWuadlSPEI5WNzZen7q96+M5HG3dUJxS8txycHuqpXxlu/hPPf5WtY0FGaHFMkZfLclguLJRM13tsUVo35muaToRqncrZE2RIpf9UxV8rxbmyZdddVd+CUEOH4fFHG0A5RfRUzwxQOkxiLKCQ+TLE30N3OV21NVDQUzBO9xOX4WMLj+QS2yyEey2OyhytuudNjeHVRLIKpjpBuw6OH0K7ueHaqpsuSZEMQd8QCX+J+HIa6ldLA0NlYL6DdHqivo4Beepij/E4Be0tVS18EppZ45rCxyOBUX6Gf7KVp5oue+nqPBIw+ElNXDMUfvkb3jMC61kn8TxcrFp3Zcr2vOYdkRwfnx8qamncNfEw6gFW0uUmeGpvsvXDIYnRgN76IuyJrBoq74e4o5QbHWR5BtzGuuP4TnTYpHK0Frhqss1wfZoyTyXQWu2yi1UDZPlC099Z3Cw1QdstHNMx8HIOmwyM/IFBfhMeY+BGZagAbKK6qbdK1IybJvD4HucX4AjTGiyX+G52vooi37gR9jxl6LRDWiml2R6yMGF/oqA45pwMdnICvzEJ2RwuJOgGqpHiosqsYme3bRIvm6G+wnspyXt0REkU0Re/QBuY+fkpbaYNINtVHx4AULGAaueAmChk9l7PfManmcBamgaBpsXH+E0cT4vi9HKYcNwiSoZbxTNc0A+Wpulz2QvAqMTsDrkt6DN+6supgZOzx9eqpffRpnoqiOvdiNaxuI4ZNBOD4ZCw3B9QrGbSFlAwZiTk36rxmGUralpd8V7C7tyilRFZrYxr4UvAsd6KkxOsoKSvkc6jNXK0+ImMvLf2RvhziWlrallKaGWCcj7N3JLf1tYhHn4ZA+pdIw+IO1LSp0FK2LW2vcpVv7B3+SnPaVB7vxJK5ugka15sOtv4UHh+qsRH02t3CPe1hrTibHt3EQv8AqkjDpjFK0tO2oV8Pcma+rH8xWaQHW0uD3C7U1fV0sQEM5s06AqDFUc6iikaflIQmavc2QtvZHin5Fqmhr/8ALKyLSRua3UFPWD1Ek9NDI64zNvqqTlrC61yrU4WxiGXDoNblrQDZJUJAVtjVPnDL9EJmeeYd1MqcWpo4DnJsgM2N0vMNjonUbF5aIPCfE7KanbDUuALdAe4TWOLaNrQTK23kqkFgPJdI36pva76E5jzjnFfvDHR02x0uk0sMspe86kr1vi2UiKNWTjSFds58lB+Ixyoadx++T+iZmRXS/wAaR5KOJ3UP0/JGpSQZrbGH2U1dK0Pg5gFVd5czqW6EH+6sGtrmwROc8iwF1Q3COKDC8eoqx5tGH8qU9mu0Vw46x1Rh8mQkZm2BHS6wZNydDFqjphEs9bViuygMZflZtidr2RN9fVh4a9rHShu9jlOqQsJgo6HEZKLiKKsllsOXUh7nDKfIHT1CMTYdwoWnLj00YABMQrH3B/De6CVaNDWPfZKramSkxV05Zy4pyLtG2a26KNqBIy43Ve1M4rqxtLw9XV81M0B07qm5Y1um2bUJygPu8PjOjRqSq26T0Gpl9orT2ovDMRkcTd7mtY0X2FrlJFKMxaRuDoifFWINxXHa2pa4ljpLR32yjRDaQhp8Wx0W2J1JzslcrGzAZ7tdC7pcgFR62mLp3ODVxopTHIyXsbO9U0CiE8YkaLhwvdPC2V2KT6Z6k0GI1eHO+xPh7FHJcN8lDlw8j5SrHCKeWiPW8TV1QA0iwUEY3Udd1JmoyNbFQX0pzFTWib2G2uLtAFLgjJtospoB2ROnpxbZAJzhhv0U6GDyXeGnFhopsUI7I7IRmweSAcQwtljndMfs422A+qcWwi2yT+MnWoXGPQSPytv8x/ZCmNCECIAtcDqxws7y7FW/7P8AFTi+CClrDmnpjyi8/OB8J/JVO+lmgmEnL+we0sDu9grB9mtLK7Bq2SJ5a4TDLc6GwWfKlo1Ym9j9j2FmsjjlppBBWRDwyW3CWZaHiB7wwyUQvvLYX/6pko8YvCI61jmSN0LuhXR9bRkZuaz81nbX5N2PNcLi1si4dhMFBQmOPxPkOaWTq4pM9pXEPuFL7hSE8+cEF4+VvX6puxDETK3k0pytPxO/ZVX7R4w2amcN/Fc91I1V6Ksrrg6+4l5cjc1xp0O69hktdezvY4NA6t8XqtaZji9zbXsNfRbjnBSkqmt00F/CR/ZNeE10lAIS4iSinAItvG47tSEQQ7Q6g2TbhD4p6YU8w8tDYoeB/K0PjY454myR2c1wuCok9I3sVrwzOWxSU878xY4tDj1siszAReysVGeo0LdRSaFDZKTxlMtTGNUNkjGYo7Bo9pWDTRFadmigUoRWnGgQGJULBbZS42LlEBZbS19FSaVFVFGeznaojTNV1KJjGaIRxBgtBUxc+pk5BZs4G1/oh+KcbUdOC2gaZn7ZtgEoYjjtZiLy6WTfp2StnS9N/wAzJfdvR7UzsyPpA9ros12XbY+qPcBY5TYZPJSVZEVNUm7ZDs122qS33d47+O5v5rq4jlgeVlRU7Oph9FCTll3SU0UsTiCNf1QaTCw2YusLeirnC+JsTwuzIZzJCP8Aal1H8I2OPy5n21CQ7+iTT9VlvFS8Gf8Az3DHEQtjYQ09OqrT2hTRuljhBu5vi9FLq+OKt7Hsp6ZsWb5nG5SlWSyVUjpZ3Fz3G5JT4sTl7Yl4m12D42l2zQe9kX4UihdjMcNXYMmY9l3HS5CEtbyn5st1o+Ql+YBzNbi2hWtHJuXL0wlVUzqCuqIJW+JgdGf8FTuGWvlkyH4zYN8tUIZVyVDi6d2Z+xceqnUc/KkaY3ZHX37KMC8j3wo8NdVxVJ1dId+mqYGOJjyk6tNikqmkkqGiV2lQNBNEbH/kNimLBK81sLxI3LOw5JG+YRQtnepG6HSDxFEqnqhsnxFOVHWlCK040CF0vREec2nppJnmzWNJKmxpTb0jTFsXZhseVhBmI08lXlfVPmqpJHaucb3K7YhXvqpnyvcSXm9uyGudqkdHqfT+mx4MSS8/kzNcrZi0Gq6sS7NELs6AaLCBZetK8KBp10cXt7LQsK7EXXhaoUVBwLSuT2qSWrzJ5IFNYtkF7Lri+MkeiIuj8loYkUY8vpVXkFlrmbbLpDOQRmH1Ux8FwuDqdHZz79FUvoPcN1zY6xvNdeJxH0Ka8DcySqr6iI2zVLtuwAH+FXcIcxoaOhTlwrSitp5zDVSwVLTmOU+Fw9EUV5MFKN6GeoIshkh8ZXenlkeHxVIAnjPitsQdiFxkHjKsMLRtTHULTiaVzMDkLTq5wafReLEH4NPpPrz/AEQ3uN14DcrFiqPR77Ojd10CxYoXybAr1YsUL14NVixYoKzxYsWICmpWqxYiV0eFc3bLFiBXRq1MfBkro8YY1uz2kO9FixGSi/p1/Bmr/Bi0Rb88Tmu87EWXCQ+IrFitR5ln/9k=&quot;&gt;&lt;b&gt;&lt;font style=&quot;font-size: 14px;&quot;&gt;&lt;br&gt;&lt;/font&gt;&lt;/b&gt;&lt;/div&gt;" style="text;html=1;align=center;verticalAlign=middle;resizable=0;points=[];autosize=1;strokeColor=none;fillColor=none;" vertex="1" parent="1">
          <mxGeometry x="830" y="790" width="180" height="200" as="geometry" />
        </mxCell>
        <mxCell id="El-sgP1DWGqVcRPQF3cg-42" value="&lt;div&gt;We felt truly heard throughout the entire process. They didn’t just give us a service&lt;/div&gt;&lt;div&gt;—they gave us confidence, peace of mind, and a system that&lt;/div&gt;&lt;div&gt;&amp;nbsp;has made our lives so much easier.&quot;&lt;/div&gt;— Angela R., Co-founder, Harvest &amp;amp; Hope Cooperative" style="text;html=1;align=center;verticalAlign=middle;resizable=0;points=[];autosize=1;strokeColor=none;fillColor=none;" vertex="1" parent="1">
          <mxGeometry x="668" y="994" width="460" height="70" as="geometry" />
        </mxCell>
      </root>
    </mxGraphModel>
  </diagram>
</mxfile>
